<svg width="960" height="540" viewBox="0 0 960 540" fill="none" xmlns="http://www.w3.org/2000/svg">
  <rect width="960" height="540" rx="36" fill="#0f172a"/>
  <circle cx="774" cy="118" r="164" fill="#312e81" opacity="0.55"/>
  <circle cx="156" cy="406" r="140" fill="#0369a1" opacity="0.38"/>
  <rect x="94" y="82" width="772" height="376" rx="28" fill="#111827" stroke="#3b426b" stroke-width="3"/>
  <rect x="138" y="130" width="430" height="34" rx="17" fill="#818cf8"/>
  <rect x="138" y="190" width="320" height="14" rx="7" fill="#64748b"/>
  <rect x="138" y="222" width="405" height="14" rx="7" fill="#64748b"/>
  <rect x="138" y="254" width="360" height="14" rx="7" fill="#64748b"/>
  <rect x="138" y="318" width="392" height="82" rx="18" fill="#020617" stroke="#334155" stroke-width="2"/>
  <rect x="168" y="347" width="160" height="12" rx="6" fill="#22d3ee"/>
  <rect x="168" y="374" width="285" height="12" rx="6" fill="#94a3b8"/>
  <rect x="640" y="138" width="146" height="20" rx="10" fill="#60a5fa"/>
  <rect x="640" y="184" width="186" height="12" rx="6" fill="#475569"/>
  <rect x="664" y="216" width="128" height="12" rx="6" fill="#475569"/>
  <rect x="640" y="264" width="156" height="12" rx="6" fill="#475569"/>
  <rect x="664" y="296" width="116" height="12" rx="6" fill="#475569"/>
  <path d="M626 183H610V302H626" stroke="#475569" stroke-width="5" stroke-linecap="round" stroke-linejoin="round"/>
</svg>
