<svg width="960" height="540" viewBox="0 0 960 540" fill="none" xmlns="http://www.w3.org/2000/svg">
  <rect width="960" height="540" rx="36" fill="#020617"/>
  <rect x="74" y="64" width="812" height="412" rx="30" fill="#111827" stroke="#3b426b" stroke-width="3"/>
  <rect x="118" y="110" width="194" height="320" rx="24" fill="#0f172a" stroke="#334155" stroke-width="2"/>
  <rect x="150" y="146" width="98" height="16" rx="8" fill="#60a5fa"/>
  <path d="M162 194H146V338H162" stroke="#475569" stroke-width="5" stroke-linecap="round" stroke-linejoin="round"/>
  <rect x="176" y="186" width="84" height="12" rx="6" fill="#c4b5fd"/>
  <rect x="198" y="220" width="66" height="10" rx="5" fill="#64748b"/>
  <rect x="198" y="250" width="78" height="10" rx="5" fill="#64748b"/>
  <rect x="176" y="294" width="96" height="12" rx="6" fill="#c4b5fd"/>
  <rect x="198" y="328" width="54" height="10" rx="5" fill="#64748b"/>
  <rect x="374" y="120" width="302" height="30" rx="15" fill="#818cf8"/>
  <rect x="374" y="188" width="400" height="14" rx="7" fill="#64748b"/>
  <rect x="374" y="222" width="354" height="14" rx="7" fill="#64748b"/>
  <rect x="374" y="284" width="244" height="24" rx="12" fill="#38bdf8"/>
  <rect x="374" y="340" width="432" height="14" rx="7" fill="#64748b"/>
  <rect x="374" y="374" width="318" height="14" rx="7" fill="#64748b"/>
  <circle cx="782" cy="120" r="58" fill="#1d4ed8" opacity="0.32"/>
  <circle cx="812" cy="394" r="72" fill="#7c3aed" opacity="0.28"/>
</svg>
