{
  "asset": {
    "version": "2.0",
    "generator": "3dpea GLTFExporter"
  },
  "scenes": [
    {
      "name": "AuxScene",
      "nodes": [
        11
      ]
    }
  ],
  "scene": 0,
  "nodes": [
    {
      "mesh": 0
    },
    {
      "mesh": 1
    },
    {
      "mesh": 2
    },
    {
      "mesh": 3
    },
    {
      "mesh": 4
    },
    {
      "mesh": 5
    },
    {
      "mesh": 6
    },
    {
      "mesh": 7
    },
    {
      "mesh": 8
    },
    {
      "mesh": 9
    },
    {
      "name": "ADITYA_BANG v1",
      "children": [
        0,
        1,
        2,
        3,
        4,
        5,
        6,
        7,
        8,
        9
      ]
    },
    {
      "children": [
        10
      ]
    }
  ],
  "bufferViews": [
    {
      "buffer": 0,
      "byteOffset": 0,
      "byteLength": 7068,
      "target": 34962,
      "byteStride": 12
    },
    {
      "buffer": 0,
      "byteOffset": 7068,
      "byteLength": 7068,
      "target": 34962,
      "byteStride": 12
    },
    {
      "buffer": 0,
      "byteOffset": 14136,
      "byteLength": 3156,
      "target": 34963
    },
    {
      "buffer": 0,
      "byteOffset": 17292,
      "byteLength": 7248,
      "target": 34962,
      "byteStride": 12
    },
    {
      "buffer": 0,
      "byteOffset": 24540,
      "byteLength": 7248,
      "target": 34962,
      "byteStride": 12
    },
    {
      "buffer": 0,
      "byteOffset": 31788,
      "byteLength": 3132,
      "target": 34963
    },
    {
      "buffer": 0,
      "byteOffset": 34920,
      "byteLength": 3504,
      "target": 34962,
      "byteStride": 12
    },
    {
      "buffer": 0,
      "byteOffset": 38424,
      "byteLength": 3504,
      "target": 34962,
      "byteStride": 12
    },
    {
      "buffer": 0,
      "byteOffset": 41928,
      "byteLength": 1440,
      "target": 34963
    },
    {
      "buffer": 0,
      "byteOffset": 43368,
      "byteLength": 5628,
      "target": 34962,
      "byteStride": 12
    },
    {
      "buffer": 0,
      "byteOffset": 48996,
      "byteLength": 5628,
      "target": 34962,
      "byteStride": 12
    },
    {
      "buffer": 0,
      "byteOffset": 54624,
      "byteLength": 2268,
      "target": 34963
    },
    {
      "buffer": 0,
      "byteOffset": 56892,
      "byteLength": 6576,
      "target": 34962,
      "byteStride": 12
    },
    {
      "buffer": 0,
      "byteOffset": 63468,
      "byteLength": 6576,
      "target": 34962,
      "byteStride": 12
    },
    {
      "buffer": 0,
      "byteOffset": 70044,
      "byteLength": 2688,
      "target": 34963
    },
    {
      "buffer": 0,
      "byteOffset": 72732,
      "byteLength": 6756,
      "target": 34962,
      "byteStride": 12
    },
    {
      "buffer": 0,
      "byteOffset": 79488,
      "byteLength": 6756,
      "target": 34962,
      "byteStride": 12
    },
    {
      "buffer": 0,
      "byteOffset": 86244,
      "byteLength": 2832,
      "target": 34963
    },
    {
      "buffer": 0,
      "byteOffset": 89076,
      "byteLength": 7992,
      "target": 34962,
      "byteStride": 12
    },
    {
      "buffer": 0,
      "byteOffset": 97068,
      "byteLength": 7992,
      "target": 34962,
      "byteStride": 12
    },
    {
      "buffer": 0,
      "byteOffset": 105060,
      "byteLength": 3360,
      "target": 34963
    },
    {
      "buffer": 0,
      "byteOffset": 108420,
      "byteLength": 10320,
      "target": 34962,
      "byteStride": 12
    },
    {
      "buffer": 0,
      "byteOffset": 118740,
      "byteLength": 10320,
      "target": 34962,
      "byteStride": 12
    },
    {
      "buffer": 0,
      "byteOffset": 129060,
      "byteLength": 4488,
      "target": 34963
    },
    {
      "buffer": 0,
      "byteOffset": 133548,
      "byteLength": 10488,
      "target": 34962,
      "byteStride": 12
    },
    {
      "buffer": 0,
      "byteOffset": 144036,
      "byteLength": 10488,
      "target": 34962,
      "byteStride": 12
    },
    {
      "buffer": 0,
      "byteOffset": 154524,
      "byteLength": 4524,
      "target": 34963
    },
    {
      "buffer": 0,
      "byteOffset": 159048,
      "byteLength": 5856,
      "target": 34962,
      "byteStride": 12
    },
    {
      "buffer": 0,
      "byteOffset": 164904,
      "byteLength": 5856,
      "target": 34962,
      "byteStride": 12
    },
    {
      "buffer": 0,
      "byteOffset": 170760,
      "byteLength": 2424,
      "target": 34963
    }
  ],
  "buffers": [
    {
      "byteLength": 173184,
      "uri": "data:application/octet-stream;base64,"
    }
  ],
  "accessors": [
    {
      "bufferView": 0,
      "componentType": 5126,
      "count": 589,
      "max": [
        44.355857849121094,
        30.864334106445312,
        29.683807373046875
      ],
      "min": [
        38.03520202636719,
        24.864334106445312,
        23.077213287353516
      ],
      "type": "VEC3"
    },
    {
      "bufferView": 1,
      "componentType": 5126,
      "count": 589,
      "max": [
        0.8871794939041138,
        1,
        1
      ],
      "min": [
        -0.8800641894340515,
        -1,
        -1
      ],
      "type": "VEC3"
    },
    {
      "bufferView": 2,
      "componentType": 5123,
      "count": 1578,
      "max": [
        588
      ],
      "min": [
        0
      ],
      "type": "SCALAR"
    },
    {
      "bufferView": 3,
      "componentType": 5126,
      "count": 604,
      "max": [
        39.8539924621582,
        30.864334106445312,
        37.51677322387695
      ],
      "min": [
        30.852861404418945,
        24.864334106445312,
        30.193696975708008
      ],
      "type": "VEC3"
    },
    {
      "bufferView": 4,
      "componentType": 5126,
      "count": 604,
      "max": [
        0.8000599145889282,
        1,
        1
      ],
      "min": [
        -0.7958701848983765,
        -1,
        -1
      ],
      "type": "VEC3"
    },
    {
      "bufferView": 5,
      "componentType": 5123,
      "count": 1566,
      "max": [
        603
      ],
      "min": [
        0
      ],
      "type": "SCALAR"
    },
    {
      "bufferView": 6,
      "componentType": 5126,
      "count": 292,
      "max": [
        45.709617614746094,
        30.864334106445312,
        22.136552810668945
      ],
      "min": [
        42.63272476196289,
        24.864334106445312,
        20.26402473449707
      ],
      "type": "VEC3"
    },
    {
      "bufferView": 7,
      "componentType": 5126,
      "count": 292,
      "max": [
        0.9143221378326416,
        1,
        1
      ],
      "min": [
        -0.913886308670044,
        -1,
        -1
      ],
      "type": "VEC3"
    },
    {
      "bufferView": 8,
      "componentType": 5123,
      "count": 720,
      "max": [
        291
      ],
      "min": [
        0
      ],
      "type": "SCALAR"
    },
    {
      "bufferView": 9,
      "componentType": 5126,
      "count": 469,
      "max": [
        49.548580169677734,
        30.864334106445312,
        13.35853099822998
      ],
      "min": [
        45.98246383666992,
        24.864334106445312,
        6.70358419418335
      ],
      "type": "VEC3"
    },
    {
      "bufferView": 10,
      "componentType": 5126,
      "count": 469,
      "max": [
        0.9907485842704773,
        1,
        1
      ],
      "min": [
        -0.9908297657966614,
        -1,
        -1
      ],
      "type": "VEC3"
    },
    {
      "bufferView": 11,
      "componentType": 5123,
      "count": 1134,
      "max": [
        468
      ],
      "min": [
        0
      ],
      "type": "SCALAR"
    },
    {
      "bufferView": 12,
      "componentType": 5126,
      "count": 548,
      "max": [
        49.99947738647461,
        30.864334106445312,
        7.551934719085693
      ],
      "min": [
        47.22639083862305,
        24.864334106445312,
        0.2288581281900406
      ],
      "type": "VEC3"
    },
    {
      "bufferView": 13,
      "componentType": 5126,
      "count": 548,
      "max": [
        0.9999846816062927,
        1,
        1
      ],
      "min": [
        -0.9999815821647644,
        -1,
        -1
      ],
      "type": "VEC3"
    },
    {
      "bufferView": 14,
      "componentType": 5123,
      "count": 1344,
      "max": [
        547
      ],
      "min": [
        0
      ],
      "type": "SCALAR"
    },
    {
      "bufferView": 15,
      "componentType": 5126,
      "count": 563,
      "max": [
        49.16762161254883,
        30.864334106445312,
        -9.085428237915039
      ],
      "min": [
        45.03092956542969,
        24.864334106445312,
        -16.40850830078125
      ],
      "type": "VEC3"
    },
    {
      "bufferView": 16,
      "componentType": 5126,
      "count": 563,
      "max": [
        0.9831111431121826,
        1,
        1
      ],
      "min": [
        -0.9831990599632263,
        -1,
        -1
      ],
      "type": "VEC3"
    },
    {
      "bufferView": 17,
      "componentType": 5123,
      "count": 1416,
      "max": [
        562
      ],
      "min": [
        0
      ],
      "type": "SCALAR"
    },
    {
      "bufferView": 18,
      "componentType": 5126,
      "count": 666,
      "max": [
        47.05069351196289,
        30.864334106445312,
        -16.918394088745117
      ],
      "min": [
        41.83526611328125,
        24.864334106445312,
        -23.683231353759766
      ],
      "type": "VEC3"
    },
    {
      "bufferView": 19,
      "componentType": 5126,
      "count": 666,
      "max": [
        0.9407663941383362,
        1,
        1
      ],
      "min": [
        -0.9407663941383362,
        -1,
        -1
      ],
      "type": "VEC3"
    },
    {
      "bufferView": 20,
      "componentType": 5123,
      "count": 1680,
      "max": [
        665
      ],
      "min": [
        0
      ],
      "type": "SCALAR"
    },
    {
      "bufferView": 21,
      "componentType": 5126,
      "count": 860,
      "max": [
        49.93587112426758,
        30.864334106445312,
        -2.531578302383423
      ],
      "min": [
        47.003761291503906,
        24.864334106445312,
        -8.887621879577637
      ],
      "type": "VEC3"
    },
    {
      "bufferView": 22,
      "componentType": 5126,
      "count": 860,
      "max": [
        0.998681366443634,
        1,
        1
      ],
      "min": [
        -0.998681366443634,
        -1,
        -1
      ],
      "type": "VEC3"
    },
    {
      "bufferView": 23,
      "componentType": 5123,
      "count": 2244,
      "max": [
        859
      ],
      "min": [
        0
      ],
      "type": "SCALAR"
    },
    {
      "bufferView": 24,
      "componentType": 5126,
      "count": 874,
      "max": [
        43.536128997802734,
        30.969829559326172,
        -24.588726043701172
      ],
      "min": [
        36.68782424926758,
        24.758840560913086,
        -31.428287506103516
      ],
      "type": "VEC3"
    },
    {
      "bufferView": 25,
      "componentType": 5126,
      "count": 874,
      "max": [
        0.871473491191864,
        1,
        1
      ],
      "min": [
        -0.8630875945091248,
        -1,
        -1
      ],
      "type": "VEC3"
    },
    {
      "bufferView": 26,
      "componentType": 5123,
      "count": 2262,
      "max": [
        873
      ],
      "min": [
        0
      ],
      "type": "SCALAR"
    },
    {
      "bufferView": 27,
      "componentType": 5126,
      "count": 488,
      "max": [
        48.08232879638672,
        31.145654678344727,
        19.666223526000977
      ],
      "min": [
        43.76998519897461,
        24.864334106445312,
        13.714573860168457
      ],
      "type": "VEC3"
    },
    {
      "bufferView": 28,
      "componentType": 5126,
      "count": 488,
      "max": [
        0.9626637697219849,
        1,
        1
      ],
      "min": [
        -0.9615815877914429,
        -1,
        -1
      ],
      "type": "VEC3"
    },
    {
      "bufferView": 29,
      "componentType": 5123,
      "count": 1212,
      "max": [
        487
      ],
      "min": [
        0
      ],
      "type": "SCALAR"
    }
  ],
  "materials": [
    {
      "pbrMetallicRoughness": {
        "baseColorFactor": [
          0.9046611743890203,
          0.783537791521566,
          0.3864294337766795,
          1
        ],
        "metallicFactor": 0,
        "roughnessFactor": 0.3
      },
      "doubleSided": true,
      "name": "Mat_1"
    },
    {
      "pbrMetallicRoughness": {
        "baseColorFactor": [
          0.9046611785888672,
          0.7835378050804138,
          0.38642942905426025,
          1
        ],
        "metallicFactor": 0,
        "roughnessFactor": 0.3
      },
      "doubleSided": true,
      "name": "Mat_2"
    },
    {
      "pbrMetallicRoughness": {
        "baseColorFactor": [
          0.9046611785888672,
          0.7835378050804138,
          0.38642942905426025,
          1
        ],
        "metallicFactor": 0,
        "roughnessFactor": 0.3
      },
      "doubleSided": true,
      "name": "Mat_3"
    },
    {
      "pbrMetallicRoughness": {
        "baseColorFactor": [
          0.9046611785888672,
          0.7835378050804138,
          0.38642942905426025,
          1
        ],
        "metallicFactor": 0,
        "roughnessFactor": 0.3
      },
      "doubleSided": true,
      "name": "Mat_4"
    },
    {
      "pbrMetallicRoughness": {
        "baseColorFactor": [
          0.9046611785888672,
          0.7835378050804138,
          0.38642942905426025,
          1
        ],
        "metallicFactor": 0,
        "roughnessFactor": 0.3
      },
      "doubleSided": true,
      "name": "Mat_5"
    },
    {
      "pbrMetallicRoughness": {
        "baseColorFactor": [
          0.9046611785888672,
          0.7835378050804138,
          0.38642942905426025,
          1
        ],
        "metallicFactor": 0,
        "roughnessFactor": 0.3
      },
      "doubleSided": true,
      "name": "Mat_6"
    },
    {
      "pbrMetallicRoughness": {
        "baseColorFactor": [
          0.9046611785888672,
          0.7835378050804138,
          0.38642942905426025,
          1
        ],
        "metallicFactor": 0,
        "roughnessFactor": 0.3
      },
      "doubleSided": true,
      "name": "Mat_7"
    },
    {
      "pbrMetallicRoughness": {
        "baseColorFactor": [
          0.9046611785888672,
          0.7835378050804138,
          0.38642942905426025,
          1
        ],
        "metallicFactor": 0,
        "roughnessFactor": 0.3
      },
      "doubleSided": true,
      "name": "Mat_8"
    },
    {
      "pbrMetallicRoughness": {
        "baseColorFactor": [
          0.9046611785888672,
          0.7835378050804138,
          0.38642942905426025,
          1
        ],
        "metallicFactor": 0,
        "roughnessFactor": 0.3
      },
      "doubleSided": true,
      "name": "Mat_9"
    },
    {
      "pbrMetallicRoughness": {
        "baseColorFactor": [
          0.9046611785888672,
          0.7835378050804138,
          0.38642942905426025,
          1
        ],
        "metallicFactor": 0,
        "roughnessFactor": 0.3
      },
      "doubleSided": true,
      "name": "Mat_10"
    }
  ],
  "meshes": [
    {
      "primitives": [
        {
          "mode": 4,
          "attributes": {
            "POSITION": 0,
            "NORMAL": 1
          },
          "indices": 2,
          "material": 0
        }
      ]
    },
    {
      "primitives": [
        {
          "mode": 4,
          "attributes": {
            "POSITION": 3,
            "NORMAL": 4
          },
          "indices": 5,
          "material": 1
        }
      ]
    },
    {
      "primitives": [
        {
          "mode": 4,
          "attributes": {
            "POSITION": 6,
            "NORMAL": 7
          },
          "indices": 8,
          "material": 2
        }
      ]
    },
    {
      "primitives": [
        {
          "mode": 4,
          "attributes": {
            "POSITION": 9,
            "NORMAL": 10
          },
          "indices": 11,
          "material": 3
        }
      ]
    },
    {
      "primitives": [
        {
          "mode": 4,
          "attributes": {
            "POSITION": 12,
            "NORMAL": 13
          },
          "indices": 14,
          "material": 4
        }
      ]
    },
    {
      "primitives": [
        {
          "mode": 4,
          "attributes": {
            "POSITION": 15,
            "NORMAL": 16
          },
          "indices": 17,
          "material": 5
        }
      ]
    },
    {
      "primitives": [
        {
          "mode": 4,
          "attributes": {
            "POSITION": 18,
            "NORMAL": 19
          },
          "indices": 20,
          "material": 6
        }
      ]
    },
    {
      "primitives": [
        {
          "mode": 4,
          "attributes": {
            "POSITION": 21,
            "NORMAL": 22
          },
          "indices": 23,
          "material": 7
        }
      ]
    },
    {
      "primitives": [
        {
          "mode": 4,
          "attributes": {
            "POSITION": 24,
            "NORMAL": 25
          },
          "indices": 26,
          "material": 8
        }
      ]
    },
    {
      "primitives": [
        {
          "mode": 4,
          "attributes": {
            "POSITION": 27,
            "NORMAL": 28
          },
          "indices": 29,
          "material": 9
        }
      ]
    }
  ]
}