{"accessors" : [{"bufferView" : 0, "byteOffset" : 0, "componentType" : 5125, "count" : 69498, "type" : "SCALAR", "max" : [68706], "min" : [0]}, {"bufferView" : 1, "byteOffset" : 0, "componentType" : 5126, "count" : 68707, "type" : "VEC3", "max" : [49.99947738647461, 31.145654678344727, 37.51677322387695], "min" : [30.852861404418945, 24.758840560913086, -31.428287506103516], "name" : "POSITION"}, {"bufferView" : 1, "byteOffset" : 12, "componentType" : 5126, "count" : 68707, "type" : "VEC3", "max" : [0.999991774559021, 1.0000044107437134, 1.0000044107437134], "min" : [-0.999991774559021, -1.0000044107437134, -1.0000044107437134], "name" : "NORMAL"}], "asset" : {"generator" : "Aspose.3D 24.1.0", "version" : "2.0"}, "buffers" : [{"uri" : "data:application/octet-stream;base64,", "byteLength" : 1945952}], "bufferViews" : [{"buffer" : 0, "byteOffset" : 0, "byteLength" : 277992, "target" : 34963}, {"buffer" : 0, "byteOffset" : 277996, "byteLength" : 1667952, "byteStride" : 24, "target" : 34962}], "meshes" : [{"primitives" : [{"attributes" : {"POSITION" : 1, "NORMAL" : 2}, "indices" : 0, "mode" : 4}], "name" : ""}], "nodes" : [{"mesh" : 0, "name" : ""}], "scene" : 0, "scenes" : [{"nodes" : [0]}]}